<svg xmlns="http://www.w3.org/2000/svg" version="1.1" xmlns:xlink="http://www.w3.org/1999/xlink" xmlns:svgjs="http://svgjs.dev/svgjs" width="2000" height="882" viewBox="0 0 2000 882"><g transform="matrix(1,0,0,1,0.3398876404492057,0.1999044355216597)"><svg viewBox="0 0 356 157" data-background-color="#89939e" preserveAspectRatio="xMidYMid meet" height="882" width="2000" xmlns="http://www.w3.org/2000/svg" xmlns:xlink="http://www.w3.org/1999/xlink"><g id="tight-bounds" transform="matrix(1,0,0,1,-0.06049999999996203,-0.03558389611893631)"><svg viewBox="0 0 356.12052 157.07116779223787" height="157.07116779223787" width="356.12052"><g><svg viewBox="0 0 356.12052 157.07116779223787" height="157.07116779223787" width="356.12052"><g><svg viewBox="0 0 356.12052 157.07116779223787" height="157.07116779223787" width="356.12052"><g><path d="M0 157.071v-157.071h356.121v157.071z" fill="#ffffff" stroke="transparent" stroke-width="0" rx="0%" data-fill-palette-color="tertiary"></path><path d="M3.283 153.788v-150.505h349.554v150.505z" fill="#000000" stroke="transparent" stroke-width="0" rx="0%" data-fill-palette-color="quaternary"></path><path d="M9.85 147.221v-137.371h336.421v137.371z" fill="#ffffff" stroke="transparent" stroke-width="0" data-fill-palette-color="tertiary"></path></g><g transform="matrix(1,0,0,1,19.69974,19.69974)" id="textblocktransform"><svg viewBox="0 0 316.72104 117.67168779223786" height="117.67168779223786" width="316.72104" id="textblock"><g><svg viewBox="0 0 316.72104 93.55611299877602" height="93.55611299877602" width="316.72104"><g transform="matrix(1,0,0,1,0,0)"><svg width="316.72104" viewBox="3.4000000953674316 -35.599998474121094 122.54000091552734 36.19999694824219" height="93.55611299877602" data-palette-color="#89939e"><path d="M9.8 0L3.4 0 3.4-35 9.8-35 26.25-10.35 26.25-35 32.65-35 32.65 0 26.25 0 9.8-24.6 9.8 0ZM45.85 0L39.45 0 39.45-35 45.85-35 45.85 0ZM59.05 0L52.65 0 52.65-35 59.05-35 59.05 0ZM88.69 0L65.84 0 65.84-35 88.69-35 88.69-29.85 72.24-29.85 72.24-20.25 87.19-20.25 87.19-15.25 72.24-15.25 72.24-5.15 88.69-5.15 88.69 0ZM110.59 0.6L110.59 0.6Q105.29 0.6 101.49-1.68 97.69-3.95 95.64-8.03 93.59-12.1 93.59-17.45L93.59-17.45Q93.59-22.8 95.64-26.9 97.69-31 101.49-33.3 105.29-35.6 110.59-35.6L110.59-35.6Q116.89-35.6 120.92-32.48 124.94-29.35 125.94-23.7L125.94-23.7 118.89-23.7Q118.24-26.55 116.12-28.18 113.99-29.8 110.49-29.8L110.49-29.8Q105.64-29.8 102.89-26.5 100.14-23.2 100.14-17.45L100.14-17.45Q100.14-11.7 102.89-8.43 105.64-5.15 110.49-5.15L110.49-5.15Q113.99-5.15 116.12-6.68 118.24-8.2 118.89-10.9L118.89-10.9 125.94-10.9Q124.94-5.5 120.92-2.45 116.89 0.6 110.59 0.6Z" opacity="1" transform="matrix(1,0,0,1,0,0)" fill="#000000" class="wordmark-text-0" data-fill-palette-color="quaternary" id="text-0"></path></svg></g></svg></g><g transform="matrix(1,0,0,1,0,100.12269299877602)"><svg viewBox="0 0 316.72104 17.54899479346184" height="17.54899479346184" width="316.72104"><g transform="matrix(1,0,0,1,0,0)"><svg width="316.72104" viewBox="2.640000104904175 -31.610000610351562 578.7531127929688 32.0712776184082" height="17.54899479346184" data-palette-color="#89939e"><path d="M7.13-23.45L7.13-23.45Q7.13-22.24 7.93-21.18 8.74-20.11 10-19.43 11.26-18.74 12.87-18.22 14.48-17.7 16.26-17.13 18.05-16.55 19.77-15.86 21.49-15.17 22.76-14.14L22.76-14.14Q25.52-11.9 25.52-8.05L25.52-8.05Q25.52-6.21 24.66-4.57 23.79-2.93 22.24-1.84L22.24-1.84Q19.08 0.46 13.79 0.46L13.79 0.46Q8.79 0.46 5-2.07L5-2.07Q2.64-3.56 2.64-4.6L2.64-4.6Q2.64-5.52 3.56-6.09L3.56-6.09Q3.79-6.32 4.14-6.32 4.48-6.32 4.89-6.03 5.29-5.75 5.83-5.34 6.38-4.94 7.21-4.45 8.05-3.97 8.97-3.56L8.97-3.56Q11.26-2.64 13.45-2.7 15.63-2.76 16.95-3.05 18.28-3.33 19.31-4.02L19.31-4.02Q21.49-5.52 21.55-7.82L21.55-7.82Q21.55-10.69 18.74-12.24L18.74-12.24Q17.47-12.93 15.89-13.48 14.31-14.02 12.56-14.54 10.8-15.06 9.08-15.8 7.36-16.55 6.03-17.59L6.03-17.59Q3.22-19.83 3.22-23.33L3.22-23.33Q3.22-25.17 4.11-26.78 5-28.39 6.55-29.43L6.55-29.43Q9.54-31.55 14.02-31.61L14.02-31.61Q20.52-31.61 24.48-27.41L24.48-27.41Q24.71-27.07 24.71-26.64 24.71-26.21 24.68-25.92 24.66-25.63 24.37-25.34L24.37-25.34Q23.97-24.83 23.3-24.83 22.64-24.83 21.9-25.69L21.9-25.69Q20-27.07 18.85-27.47L18.85-27.47Q16.55-28.39 14.37-28.39L14.37-28.39Q11.55-28.39 9.54-27.24L9.54-27.24Q7.13-25.86 7.13-23.45ZM38.73-28.1L30.17-28.1Q29.31-28.1 28.91-28.62 28.5-29.14 28.5-29.74 28.5-30.34 28.91-30.86 29.31-31.38 30.17-31.38L30.17-31.38 51.15-31.38Q51.95-31.38 52.35-30.86 52.76-30.34 52.76-29.74 52.76-29.14 52.33-28.62 51.89-28.1 51.15-28.1L51.15-28.1 42.64-28.1 42.64-1.9Q42.64-0.57 41.49-0.11L41.49-0.11Q41.15 0 40.57 0 40 0 39.37-0.46 38.73-0.92 38.73-1.9L38.73-1.9 38.73-28.1ZM72.12-27.93L82.7-2.41Q82.75-2.07 82.75-1.72 82.75-1.38 82.58-1.03 82.41-0.69 82.12-0.52L82.12-0.52Q81.55 0 80.86 0L80.86 0Q79.48 0 79.02-1.21L79.02-1.21 76.2-8.16 60.68-8.16 57.93-1.21Q57.52 0 56.32 0 55.11 0 54.48-1.03L54.48-1.03Q54.31-1.38 54.31-1.67 54.31-1.95 54.48-2.41L54.48-2.41 64.88-27.93Q66.03-30.8 67.52-31.21L67.52-31.21Q67.93-31.26 68.56-31.38L68.56-31.38Q69.71-31.38 70.28-30.86L70.28-30.86Q71.2-30.17 72.12-27.93L72.12-27.93ZM68.44-28.1L61.78-11.21 75.17-11.21 68.44-28.1ZM87.75-1.72L87.75-28.79Q87.75-29.89 88.5-30.57L88.5-30.57Q89.19-31.26 89.99-31.38L89.99-31.38Q91.6-31.38 92.52-30.11L92.52-30.11 109.19-5 109.19-29.54Q109.19-30.46 109.53-30.8L109.53-30.8Q110.16-31.38 110.77-31.38 111.37-31.38 111.72-31.26 112.06-31.15 112.29-30.92L112.29-30.92Q112.92-30.46 112.87-29.54L112.87-29.54 112.87-2.59Q112.87-0.86 111.2-0.17L111.2-0.17Q110.8 0 110.16 0L110.16 0Q108.79 0 107.75-1.26L107.75-1.26 91.49-26.03 91.49-1.72Q91.49-0.92 91.03-0.57L91.03-0.57Q90.34 0 89.59 0 88.84 0 88.3-0.43 87.75-0.86 87.75-1.72L87.75-1.72ZM130.16 0L122.58 0Q121.37 0 120.74-1.15L120.74-1.15Q120.62-1.49 120.68-1.9L120.68-1.9 120.68-29.43Q120.68-30.57 121.77-31.21L121.77-31.21Q122.12-31.38 122.58-31.38L122.58-31.38 130.05-31.38Q142.4-31.38 145.79-22.41L145.79-22.41Q146.89-19.48 146.83-15.63L146.83-15.63Q146.83-7.93 142.46-3.97L142.46-3.97Q138.09 0 130.16 0L130.16 0ZM124.53-28.28L124.53-2.99 130.62-2.99Q139.82-2.99 142-10.46L142-10.46Q142.69-12.76 142.69-15.8 142.69-18.85 141.77-21.26 140.85-23.68 139.13-25.29L139.13-25.29Q135.85-28.28 129.47-28.28L129.47-28.28 124.53-28.28ZM168.63-20.2Q168.09-17.82 168.09-15.55 168.09-13.28 168.63-10.86 169.18-8.45 170.5-6.64 171.82-4.83 173.78-3.74 175.73-2.64 178.55-2.64 181.36-2.64 183.38-3.74 185.39-4.83 186.65-6.64 187.92-8.45 188.52-10.86 189.12-13.28 189.12-15.55 189.12-17.82 188.52-20.2 187.92-22.59 186.65-24.4 185.39-26.21 183.38-27.3 181.36-28.39 178.55-28.39 175.73-28.39 173.78-27.3 171.82-26.21 170.5-24.4 169.18-22.59 168.63-20.2ZM163.78-15.63L163.78-15.63Q163.78-18.97 164.76-21.95 165.73-24.94 167.69-27.07L167.69-27.07Q171.59-31.55 178.49-31.61L178.49-31.61Q185.5-31.61 189.47-27.07L189.47-27.07Q191.36-24.94 192.31-21.95 193.26-18.97 193.26-15.63L193.26-15.63Q193.26-12.24 192.31-9.17 191.36-6.09 189.47-4.02L189.47-4.02Q185.5 0.46 178.49 0.46L178.49 0.46Q171.54 0.46 167.69-4.02L167.69-4.02Q165.73-6.21 164.76-9.22 163.78-12.24 163.78-15.63ZM200.15-10.92L200.15-29.48Q200.15-30.34 200.61-30.69L200.61-30.69Q201.36-31.38 202.14-31.38 202.91-31.38 203.52-30.92 204.12-30.46 204.12-29.48L204.12-29.48 204.12-10.92Q204.12-7.01 206.71-4.71L206.71-4.71Q209.01-2.76 212.4-2.76L212.4-2.76Q215.84-2.76 218.09-4.71L218.09-4.71Q220.67-6.9 220.67-10.92L220.67-10.92 220.67-29.48Q220.67-30.34 221.19-30.69L221.19-30.69Q221.88-31.38 222.65-31.38 223.43-31.38 224.03-30.92 224.64-30.46 224.64-29.48L224.64-29.48 224.64-10.92Q224.64-5.4 220.96-2.24L220.96-2.24Q217.63 0.52 212.4 0.46L212.4 0.46Q207.22 0.46 203.83-2.24L203.83-2.24Q200.15-5.4 200.15-10.92L200.15-10.92ZM239.46-28.1L230.9-28.1Q230.04-28.1 229.64-28.62 229.23-29.14 229.23-29.74 229.23-30.34 229.64-30.86 230.04-31.38 230.9-31.38L230.9-31.38 251.88-31.38Q252.68-31.38 253.08-30.86 253.49-30.34 253.49-29.74 253.49-29.14 253.05-28.62 252.62-28.1 251.88-28.1L251.88-28.1 243.37-28.1 243.37-1.9Q243.37-0.57 242.22-0.11L242.22-0.11Q241.88 0 241.3 0 240.73 0 240.09-0.46 239.46-0.92 239.46-1.9L239.46-1.9 239.46-28.1ZM269.57-1.9L269.57-29.48Q269.57-30.34 270.15-30.86 270.72-31.38 271.53-31.38L271.53-31.38 286.93-31.38Q287.79-31.38 288.16-30.86 288.54-30.34 288.54-29.74 288.54-29.14 288.16-28.62 287.79-28.1 286.93-28.1L286.93-28.1 273.6-28.1 273.6-17.93 286.41-17.93Q287.27-17.93 287.68-17.41 288.08-16.9 288.08-16.29 288.08-15.69 287.62-15.2 287.16-14.71 286.41-14.71L286.41-14.71 273.6-14.71 273.6-1.9Q273.6-1.03 273.14-0.57L273.14-0.57Q271.64 0.52 270.26-0.46L270.26-0.46Q269.69-0.86 269.57-1.9L269.57-1.9ZM295.09-1.9L295.09-29.43Q295.09-30.57 296.35-31.21L296.35-31.21Q296.7-31.38 297.1-31.38L297.1-31.38 306.47-31.38Q314.05-31.38 316.7-27.36L316.7-27.36Q317.62-25.69 317.62-23.13 317.62-20.57 315.95-18.79 314.28-17.01 311.18-16.38L311.18-16.38 311.18-16.21Q314.17-15.69 315.43-13.97L315.43-13.97Q316.41-12.53 316.67-10.11 316.93-7.7 317.1-6.32L317.1-6.32Q317.27-4.31 317.44-1.9L317.44-1.9Q317.44-0.92 316.84-0.46 316.24 0 315.49 0 314.74 0 314.17-0.43 313.59-0.86 313.48-1.72L313.48-1.72Q313.25-4.37 313.08-6.41 312.9-8.45 312.67-9.86 312.44-11.26 312.04-12.18 311.64-13.1 310.95-13.62L310.95-13.62Q309.8-14.48 306.41-14.6L306.41-14.6 299-14.6 299-1.9Q299-0.52 297.79-0.11L297.79-0.11Q297.44 0 296.9 0 296.35 0 295.72-0.46 295.09-0.92 295.09-1.9L295.09-1.9ZM299-17.59L304.74-17.59Q310.2-17.59 312.1-19.31L312.1-19.31Q313.48-20.52 313.59-22.93L313.59-22.93Q313.59-26.32 311.06-27.41L311.06-27.41Q309.69-28.1 308.31-28.19 306.93-28.28 306.12-28.28L306.12-28.28 299-28.28 299-17.59ZM328.68-20.2Q328.13-17.82 328.13-15.55 328.13-13.28 328.68-10.86 329.22-8.45 330.54-6.64 331.87-4.83 333.82-3.74 335.77-2.64 338.59-2.64 341.41-2.64 343.42-3.74 345.43-4.83 346.69-6.64 347.96-8.45 348.56-10.86 349.17-13.28 349.17-15.55 349.17-17.82 348.56-20.2 347.96-22.59 346.69-24.4 345.43-26.21 343.42-27.3 341.41-28.39 338.59-28.39 335.77-28.39 333.82-27.3 331.87-26.21 330.54-24.4 329.22-22.59 328.68-20.2ZM323.82-15.63L323.82-15.63Q323.82-18.97 324.8-21.95 325.77-24.94 327.73-27.07L327.73-27.07Q331.64-31.55 338.53-31.61L338.53-31.61Q345.54-31.61 349.51-27.07L349.51-27.07Q351.41-24.94 352.36-21.95 353.3-18.97 353.3-15.63L353.3-15.63Q353.3-12.24 352.36-9.17 351.41-6.09 349.51-4.02L349.51-4.02Q345.54 0.46 338.53 0.46L338.53 0.46Q331.58 0.46 327.73-4.02L327.73-4.02Q325.77-6.21 324.8-9.22 323.82-12.24 323.82-15.63ZM377.55-5.06L377.61-5.06 388.01-28.05Q388.93-30 389.39-30.52L389.39-30.52Q390.37-31.38 391.38-31.38 392.38-31.38 392.93-31.15 393.47-30.92 393.88-30.52L393.88-30.52Q394.85-29.54 394.85-27.93L394.85-27.93 394.85-1.72Q394.85-0.86 394.31-0.43 393.76 0 393.07 0 392.38 0 391.86-0.43 391.35-0.86 391.35-1.72L391.35-1.72 391.35-27.47 379.97-2.41Q379.28-0.69 377.55-0.69L377.55-0.69Q376.06-0.69 375.2-2.41L375.2-2.41 363.88-27.36 363.88-1.72Q363.88-0.86 363.33-0.43 362.78 0 362.09 0 361.4 0 360.86-0.43 360.31-0.86 360.31-1.72L360.31-1.72 360.31-27.93Q360.31-30.46 362.15-31.15L362.15-31.15Q362.78-31.26 363.44-31.32 364.11-31.38 364.65-31.21 365.2-31.03 365.6-30.69L365.6-30.69Q366.29-30.11 367.32-28.05L367.32-28.05 377.55-5.06ZM413.12-15.52L413.12-15.52Q413.12-18.51 413.99-21.55 414.85-24.6 416.63-26.78L416.63-26.78Q420.42-31.61 427.43-31.61L427.43-31.61Q431.46-31.61 435.25-29.83L435.25-29.83Q436.23-29.43 436.23-28.51L436.23-28.51Q436.23-26.78 434.85-26.72L434.85-26.72Q434.56-26.72 434.33-26.78L434.33-26.78Q430.36-28.16 428.04-28.16 425.71-28.16 424.16-27.64 422.61-27.13 421.46-26.21 420.31-25.29 419.5-24.08 418.7-22.87 418.24-21.38L418.24-21.38Q417.26-18.62 417.26-15.52L417.26-15.52Q417.26-10.46 419.5-7.01L419.5-7.01Q422.15-2.93 427.66-2.93L427.66-2.93Q431.46-2.93 434.91-4.94L434.91-4.94Q435.36-5.06 435.8-5.06 436.23-5.06 436.6-4.66 436.97-4.25 436.97-3.62 436.97-2.99 436.51-2.44 436.05-1.9 435.28-1.47 434.5-1.03 433.55-0.69 432.61-0.34 431.57-0.11L431.57-0.11Q429.39 0.46 427.43 0.46L427.43 0.46Q420.36 0.46 416.63-4.31L416.63-4.31Q413.12-8.62 413.12-15.52ZM445.25-1.9L445.25-29.43Q445.25-30.57 446.51-31.21L446.51-31.21Q446.86-31.38 447.26-31.38L447.26-31.38 456.63-31.38Q464.21-31.38 466.86-27.36L466.86-27.36Q467.78-25.69 467.78-23.13 467.78-20.57 466.11-18.79 464.44-17.01 461.34-16.38L461.34-16.38 461.34-16.21Q464.33-15.69 465.59-13.97L465.59-13.97Q466.57-12.53 466.83-10.11 467.09-7.7 467.26-6.32L467.26-6.32Q467.43-4.31 467.6-1.9L467.6-1.9Q467.6-0.92 467-0.46 466.4 0 465.65 0 464.9 0 464.33-0.43 463.75-0.86 463.64-1.72L463.64-1.72Q463.41-4.37 463.24-6.41 463.06-8.45 462.83-9.86 462.6-11.26 462.2-12.18 461.8-13.1 461.11-13.62L461.11-13.62Q459.96-14.48 456.57-14.6L456.57-14.6 449.16-14.6 449.16-1.9Q449.16-0.52 447.95-0.11L447.95-0.11Q447.6 0 447.06 0 446.51 0 445.88-0.46 445.25-0.92 445.25-1.9L445.25-1.9ZM449.16-17.59L454.9-17.59Q460.36-17.59 462.26-19.31L462.26-19.31Q463.64-20.52 463.75-22.93L463.75-22.93Q463.75-26.32 461.22-27.41L461.22-27.41Q459.85-28.1 458.47-28.19 457.09-28.28 456.28-28.28L456.28-28.28 449.16-28.28 449.16-17.59ZM478.84-20.2Q478.29-17.82 478.29-15.55 478.29-13.28 478.84-10.86 479.38-8.45 480.7-6.64 482.03-4.83 483.98-3.74 485.93-2.64 488.75-2.64 491.57-2.64 493.58-3.74 495.59-4.83 496.85-6.64 498.12-8.45 498.72-10.86 499.33-13.28 499.33-15.55 499.33-17.82 498.72-20.2 498.12-22.59 496.85-24.4 495.59-26.21 493.58-27.3 491.57-28.39 488.75-28.39 485.93-28.39 483.98-27.3 482.03-26.21 480.7-24.4 479.38-22.59 478.84-20.2ZM473.98-15.63L473.98-15.63Q473.98-18.97 474.96-21.95 475.93-24.94 477.89-27.07L477.89-27.07Q481.8-31.55 488.69-31.61L488.69-31.61Q495.7-31.61 499.67-27.07L499.67-27.07Q501.57-24.94 502.51-21.95 503.46-18.97 503.46-15.63L503.46-15.63Q503.46-12.24 502.51-9.17 501.57-6.09 499.67-4.02L499.67-4.02Q495.7 0.46 488.69 0.46L488.69 0.46Q481.74 0.46 477.89-4.02L477.89-4.02Q475.93-6.21 474.96-9.22 473.98-12.24 473.98-15.63ZM536.91-2.53L528.75-27.59 520.7-2.53Q520.36-1.26 519.38-0.63 518.4 0 517.37 0 516.33 0 515.47-0.6 514.61-1.21 514.27-2.53L514.27-2.53 507.14-28.97Q506.91-29.54 507.17-30.06 507.43-30.57 507.77-30.86L507.77-30.86Q508.46-31.38 509.15-31.38L509.15-31.38Q510.53-31.38 510.82-30.11L510.82-30.11 517.6-3.33 525.99-29.08Q526.33-30.17 527.08-30.78 527.83-31.38 528.81-31.38L528.81-31.38Q529.67-31.38 530.44-30.78 531.22-30.17 531.62-29.08L531.62-29.08 540.24-3.33 547.08-30Q547.43-31.38 548.75-31.38L548.75-31.38Q549.84-31.38 550.53-30.34L550.53-30.34Q550.7-30 550.59-29.83L550.59-29.83Q550.59-29.43 550.53-29.14L550.53-29.14 543.29-2.53Q542.89-0.69 541.22-0.17L541.22-0.17Q540.82 0 539.98 0 539.15 0 538.26-0.6 537.37-1.21 536.91-2.53L536.91-2.53ZM564.72 0L557.14 0Q555.93 0 555.3-1.15L555.3-1.15Q555.18-1.49 555.24-1.9L555.24-1.9 555.24-29.43Q555.24-30.57 556.33-31.21L556.33-31.21Q556.68-31.38 557.14-31.38L557.14-31.38 564.61-31.38Q576.96-31.38 580.35-22.41L580.35-22.41Q581.45-19.48 581.39-15.63L581.39-15.63Q581.39-7.93 577.02-3.97L577.02-3.97Q572.65 0 564.72 0L564.72 0ZM559.09-28.28L559.09-2.99 565.18-2.99Q574.38-2.99 576.56-10.46L576.56-10.46Q577.25-12.76 577.25-15.8 577.25-18.85 576.33-21.26 575.41-23.68 573.69-25.29L573.69-25.29Q570.41-28.28 564.03-28.28L564.03-28.28 559.09-28.28Z" opacity="1" transform="matrix(1,0,0,1,0,0)" fill="#000000" class="slogan-text-1" data-fill-palette-color="quaternary" id="text-1"></path></svg></g></svg></g></svg></g></svg></g><g></g></svg></g><defs></defs></svg><rect width="356.12052" height="157.07116779223787" fill="none" stroke="none" visibility="hidden"></rect></g></svg></g></svg>